<svg width="239" height="75" viewBox="0 0 239 75" fill="none" xmlns="http://www.w3.org/2000/svg">
<g clip-path="url(#clip0_7_34)">
<mask id="mask0_7_34" style="mask-type:luminance" maskUnits="userSpaceOnUse" x="0" y="0" width="75" height="75">
<path d="M0 0.0921326H74.9079V75H0V0.0921326Z" fill="white"/>
</mask>
<g mask="url(#mask0_7_34)">
<path d="M73.4966 34.2108L40.7901 1.50667C40.3424 1.05836 39.8107 0.702695 39.2255 0.460033C38.6402 0.217371 38.0128 0.0924683 37.3793 0.0924683C36.7457 0.0924683 36.1183 0.217371 35.533 0.460033C34.9478 0.702695 34.4161 1.05836 33.9684 1.50667L27.176 8.29906L35.7896 16.9127C36.8023 16.5687 37.891 16.515 38.9326 16.7576C39.9742 17.0003 40.9271 17.5295 41.6836 18.2855C42.4441 19.0471 42.9752 20.0071 43.2164 21.056C43.4575 22.105 43.399 23.2006 43.0475 24.2178L51.3488 32.52C52.3659 32.1665 53.462 32.1069 54.5115 32.348C55.5609 32.5891 56.5211 33.1211 57.282 33.883C57.815 34.416 58.2379 35.0487 58.5263 35.7451C58.8148 36.4414 58.9633 37.1878 58.9633 37.9416C58.9633 38.6954 58.8148 39.4417 58.5263 40.1381C58.2379 40.8345 57.815 41.4672 57.282 42.0002C56.205 43.0767 54.7445 43.6814 53.2218 43.6814C51.699 43.6814 50.2386 43.0767 49.1616 42.0002C48.3599 41.199 47.8135 40.1784 47.5912 39.0671C47.369 37.9557 47.4808 36.8034 47.9127 35.7556L40.1681 28.0135V48.3915C40.9855 48.7953 41.695 49.388 42.2378 50.1206C42.7805 50.8532 43.1409 51.7045 43.2891 52.6041C43.4373 53.5037 43.3691 54.4257 43.09 55.2936C42.8109 56.1616 42.3291 56.9506 41.6844 57.5953C41.1515 58.1283 40.5188 58.5511 39.8224 58.8396C39.126 59.1281 38.3796 59.2766 37.6259 59.2766C36.8721 59.2766 36.1257 59.1281 35.4293 58.8396C34.733 58.5511 34.1002 58.1283 33.5673 57.5953C33.0341 57.0623 32.6112 56.4295 32.3226 55.7331C32.0341 55.0366 31.8856 54.2902 31.8856 53.5363C31.8856 52.7824 32.0341 52.036 32.3226 51.3395C32.6112 50.6431 33.0341 50.0103 33.5673 49.4773C34.105 48.9384 34.7446 48.5119 35.4488 48.2227V27.6572C34.7445 27.3697 34.1048 26.9442 33.5673 26.4059C32.7623 25.5999 32.2151 24.5728 31.995 23.4552C31.775 22.3375 31.8921 21.1797 32.3314 20.1287L23.8385 11.6357L1.41349 34.0575C0.965295 34.5055 0.609755 35.0374 0.367182 35.6229C0.124608 36.2084 -0.000244141 36.8359 -0.000244141 37.4696C-0.000244141 38.1033 0.124608 38.7308 0.367182 39.3163C0.609755 39.9017 0.965295 40.4337 1.41349 40.8817L34.1208 73.5898C35.0258 74.4939 36.2526 75.0017 37.5317 75.0017C38.8108 75.0017 40.0376 74.4939 40.9426 73.5898L73.4966 41.0349C74.4004 40.1294 74.908 38.9022 74.908 37.6228C74.908 36.3434 74.4004 35.1163 73.4966 34.2108Z" fill="white"/>
</g>
</g>
<path d="M109.24 29.08C108.787 28.3333 108.16 27.76 107.36 27.36C106.587 26.96 105.667 26.76 104.6 26.76C102.627 26.76 101.067 27.4 99.92 28.68C98.8 29.96 98.24 31.68 98.24 33.84C98.24 36.2667 98.84 38.12 100.04 39.4C101.267 40.6533 103.04 41.28 105.36 41.28C108.107 41.28 110.067 40.04 111.24 37.56H103.36V31.92H118V39.52C117.387 41.0133 116.48 42.4133 115.28 43.72C114.107 45.0267 112.613 46.1067 110.8 46.96C108.987 47.7867 106.92 48.2 104.6 48.2C101.773 48.2 99.2667 47.6 97.08 46.4C94.92 45.1733 93.24 43.48 92.04 41.32C90.8667 39.1333 90.28 36.64 90.28 33.84C90.28 31.0667 90.8667 28.6 92.04 26.44C93.24 24.2533 94.92 22.56 97.08 21.36C99.24 20.1333 101.733 19.52 104.56 19.52C108.107 19.52 111.04 20.3733 113.36 22.08C115.68 23.7867 117.12 26.12 117.68 29.08H109.24ZM129.353 19.8V48H121.513V19.8H129.353ZM155.058 19.8V26.04H147.538V48H139.698V26.04H132.258V19.8H155.058ZM184.735 19.8V26.04H173.455V31H181.775V36.96H173.455V48H165.615V19.8H184.735ZM195.877 19.8V48H188.037V19.8H195.877ZM208.182 42H216.942V48H200.342V19.8H208.182V42ZM227.83 26.08V30.68H236.83V36.64H227.83V41.72H238.03V48H219.99V19.8H238.03V26.08H227.83Z" fill="white"/>
<defs>
<clipPath id="clip0_7_34">
<rect width="75" height="75" fill="white"/>
</clipPath>
</defs>
</svg>
