<svg width="100" height="70" viewBox="0 0 68 87" fill="none" xmlns="http://www.w3.org/2000/svg">
<path d="M38.3081 3.00391C37.8866 3 37.4135 3 36.8724 3H17.1241C12.1805 3 9.70687 3 7.81868 3.98095C6.15774 4.84378 4.80835 6.21962 3.9621 7.9131C3 9.83829 3 12.3604 3 17.4009V69.6009C3 74.6413 3 77.1604 3.9621 79.0855C4.80835 80.7789 6.15774 82.1572 7.81868 83.0199C9.70506 84 12.1757 84 17.1098 84H50.6797C55.6135 84 58.0807 84 59.967 83.0199C61.6278 82.1572 62.9819 80.7789 63.828 79.0855C64.7892 77.1622 64.7892 74.6468 64.7892 69.6162V31.4656C64.7892 30.9133 64.7892 30.4302 64.7853 30M38.3081 3.00391C39.5686 3.01561 40.3662 3.06232 41.1275 3.24867C42.0283 3.46912 42.8889 3.83367 43.6785 4.32714C44.5692 4.88356 45.3336 5.66319 46.8593 7.21875L60.6538 21.2834C62.1804 22.84 62.9395 23.6161 63.4855 24.5244C63.9692 25.3296 64.3271 26.2077 64.5434 27.126C64.7261 27.9019 64.7729 28.7153 64.7853 30M38.3081 3.00391V15.6C38.3081 20.6405 38.3081 23.159 39.2703 25.0842C40.1164 26.7776 41.466 28.1572 43.1268 29.02C45.0131 30 47.4838 30 52.4177 30H64.7853M64.7853 30H64.7901M42.7217 48L51.5487 57L42.7217 66M25.0676 66L16.2406 57L25.0676 48" stroke="white" stroke-width="5" stroke-linecap="round" stroke-linejoin="round"/>
<path d="M38.3081 3.00391C37.8866 3 37.4135 3 36.8724 3H17.1241C12.1805 3 9.70687 3 7.81868 3.98095C6.15774 4.84378 4.80835 6.21962 3.9621 7.9131C3 9.83829 3 12.3604 3 17.4009V69.6009C3 74.6413 3 77.1604 3.9621 79.0855C4.80835 80.7789 6.15774 82.1572 7.81868 83.0199C9.70506 84 12.1757 84 17.1098 84H50.6797C55.6135 84 58.0807 84 59.967 83.0199C61.6278 82.1572 62.9819 80.7789 63.828 79.0855C64.7892 77.1622 64.7892 74.6468 64.7892 69.6162V31.4656C64.7892 30.9133 64.7892 30.4302 64.7853 30M38.3081 3.00391C39.5686 3.01561 40.3662 3.06232 41.1275 3.24867C42.0283 3.46912 42.8889 3.83367 43.6785 4.32714C44.5692 4.88356 45.3336 5.66319 46.8593 7.21875L60.6538 21.2834C62.1804 22.84 62.9395 23.6161 63.4855 24.5244C63.9692 25.3296 64.3271 26.2077 64.5434 27.126C64.7261 27.9019 64.7729 28.7153 64.7853 30M38.3081 3.00391V15.6C38.3081 20.6405 38.3081 23.159 39.2703 25.0842C40.1164 26.7776 41.466 28.1572 43.1268 29.02C45.0131 30 47.4838 30 52.4177 30H64.7853M64.7853 30H64.7901M42.7217 48L51.5487 57L42.7217 66M25.0676 66L16.2406 57L25.0676 48" stroke="white" stroke-width="5" stroke-linecap="round" stroke-linejoin="round"/>
</svg>
