<svg width="100" height="100" viewBox="0 0 100 100" fill="none" xmlns="http://www.w3.org/2000/svg">
<path opacity="0.5" d="M8.33331 28.9573C8.33331 25.2801 8.33331 23.4415 8.62227 21.91C9.89431 15.168 15.1679 9.89433 21.9099 8.62229C23.4414 8.33333 25.2801 8.33333 28.9573 8.33333C30.5684 8.33333 31.374 8.33333 32.1482 8.40574C35.486 8.71787 38.6521 10.0293 41.2331 12.1688C41.8316 12.665 42.4012 13.2347 43.5404 14.374L45.8333 16.6667C49.2325 20.0657 50.9321 21.7653 52.9671 22.8976C54.085 23.5196 55.2712 24.0108 56.5016 24.3616C58.7412 25 61.1446 25 65.9516 25H67.5087C78.4771 25 83.9608 25 87.5258 28.2061C87.8537 28.501 88.1658 28.8131 88.4604 29.141C91.6666 32.7056 91.6666 38.1897 91.6666 49.1579V58.3333C91.6666 74.0467 91.6666 81.9037 86.785 86.785C81.9037 91.6667 74.0466 91.6667 58.3333 91.6667H41.6666C25.9531 91.6667 18.0964 91.6667 13.2149 86.785C8.33331 81.9037 8.33331 74.0467 8.33331 58.3333V28.9573Z" fill="#F8D566"/>
<path d="M83.3334 25.9896C83.33 24.7507 83.3121 24.011 83.2275 23.3684C82.4892 17.7592 78.0754 13.3454 72.4663 12.607C71.6538 12.5 70.6863 12.5 68.7513 12.5H41.6179C42.1009 12.933 42.6446 13.4769 43.5417 14.374L45.8346 16.6667C49.2338 20.0657 50.9329 21.7653 52.9684 22.8976C54.0863 23.5196 55.2721 24.0108 56.5025 24.3616C58.7425 25 61.1459 25 65.9529 25H67.51C74.9225 25 79.8304 25 83.3334 25.9896Z" fill="#F8D566"/>
<path fill-rule="evenodd" clip-rule="evenodd" d="M51.0417 41.6667C51.0417 39.9408 52.4409 38.5417 54.1667 38.5417H75C76.7258 38.5417 78.125 39.9408 78.125 41.6667C78.125 43.3925 76.7258 44.7917 75 44.7917H54.1667C52.4409 44.7917 51.0417 43.3925 51.0417 41.6667Z" fill="#F8D566"/>
</svg>
