<svg xmlns="http://www.w3.org/2000/svg" width="18" height="18" viewBox="0 0 18 18" fill="none">
  <g clip-path="url(#clip0_190_24)">
    <path d="M9 0.225006C4.02171 0.225006 0 4.24672 0 9.22501C0 13.1901 2.58814 16.5664 6.15857 17.775C6.60857 17.8599 6.77829 17.5783 6.77829 17.3533V15.8349C4.275 16.3684 3.74014 14.625 3.74014 14.625C3.31843 13.5836 2.72829 13.3033 2.72829 13.3033C1.91314 12.7401 2.78486 12.7684 2.78486 12.7684C3.68486 12.825 4.16186 13.6967 4.16186 13.6967C4.97829 15.075 6.27171 14.6816 6.77829 14.4553C6.86314 13.8651 7.08686 13.4717 7.34014 13.2467C5.34343 13.0217 3.23486 12.2349 3.23486 8.80329C3.23486 7.81843 3.57171 7.03158 4.16186 6.38486C4.07829 6.15986 3.76843 5.23158 4.24671 3.99343C4.24671 3.99343 5.00529 3.74015 6.72171 4.92172C7.45497 4.72081 8.21144 4.61707 8.97171 4.61315C9.73029 4.61315 10.5184 4.72501 11.2217 4.92172C12.9381 3.76843 13.6967 3.99343 13.6967 3.99343C14.175 5.23158 13.8651 6.15986 13.7816 6.38486C14.373 7.00201 14.7099 7.81843 14.7099 8.80201C14.7099 12.2619 12.6 13.0217 10.6033 13.2467C10.9119 13.5283 11.2217 14.0619 11.2217 14.9053V17.3816C11.2217 17.6349 11.3901 17.9151 11.8401 17.8033C15.4131 16.5651 18 13.1901 18 9.22501C18 4.24672 13.9783 0.225006 9 0.225006Z" fill="white"/>
  </g>
  <defs>
    <clipPath id="clip0_190_24">
      <rect width="18" height="18" fill="white"/>
    </clipPath>
  </defs>
</svg>