 <svg className="rounded-full" width="22" height="22" viewBox="0 0 22 22" fill="none" xmlns="http://www.w3.org/2000/svg">
            <rect width="22" height="22" rx="11" fill="white" />
            <path fill-rule="evenodd" clip-rule="evenodd" d="M14.5 12.75V14.25C14.5 14.3881 14.3881 14.5 14.25 14.5H7.75C7.61193 14.5 7.5 14.3881 7.5 14.25V7.75C7.5 7.61193 7.61193 7.5 7.75 7.5H9.25H10V6H9.25H7.75C6.7835 6 6 6.7835 6 7.75V14.25C6 15.2165 6.7835 16 7.75 16H14.25C15.2165 16 16 15.2165 16 14.25V12.75V12H14.5V12.75ZM11.5 6H12.25H15.2495C15.6637 6 15.9995 6.33579 15.9995 6.75V9.75V10.5H14.4995V9.75V8.56066L11.5303 11.5298L11 12.0601L9.93934 10.9995L10.4697 10.4691L13.4388 7.5H12.25H11.5V6Z" fill="black" />
          </svg>